<svg width="37" height="36" viewBox="0 0 37 36" fill="none" xmlns="http://www.w3.org/2000/svg">
<path d="M17.8861 28.0001H17.452C17.2139 28.0001 17.0519 28.0001 16.9019 27.9921C16.466 27.9876 16.0312 27.9484 15.6015 27.8751C15.1371 27.7924 14.6879 27.64 14.2691 27.4231C13.8531 27.2059 13.474 26.9244 13.1458 26.5891C13.1188 26.5631 13.1008 26.5441 13.0458 26.4891C12.9117 26.3561 12.8187 26.2621 12.6777 26.1171C12.5656 26.0051 12.4776 25.9171 12.3056 25.7371L9.84286 23.2001C9.75783 23.1191 9.71382 23.0761 9.6428 23.0061C9.55277 22.9171 9.50376 22.8661 9.39173 22.7521L7.14609 20.4411L7.04606 20.3411L6.94003 20.2331C6.85201 20.1431 6.80199 20.0901 6.76498 20.0481C6.57675 19.8577 6.39878 19.6574 6.23183 19.4481C6.07572 19.2771 5.94958 19.081 5.85873 18.8681L5.83472 18.8011C5.67098 18.2857 5.67098 17.7324 5.83472 17.2171L5.85773 17.1521C5.94626 16.9378 6.07188 16.7407 6.22883 16.57C6.39247 16.3644 6.56676 16.1675 6.75098 15.98C6.827 15.898 6.88202 15.841 6.95104 15.771L7.01205 15.7C7.06607 15.645 7.10708 15.6 7.15409 15.551L9.39673 13.251L9.46875 13.178L9.49776 13.148L9.52977 13.116L9.57178 13.072L9.61279 13.03C9.67281 12.968 9.73783 12.904 9.82085 12.823L11.1842 11.423L11.2022 11.405L12.2875 10.291L12.3076 10.27C12.4616 10.112 12.5706 10 12.6767 9.89501C12.7827 9.79001 12.8857 9.68301 13.0078 9.56501L13.0448 9.52401C13.1048 9.45701 13.1148 9.44701 13.1288 9.43301C13.4628 9.08923 13.849 8.80034 14.2731 8.577C14.6952 8.36058 15.1474 8.20856 15.6145 8.126C16.0374 8.05478 16.4651 8.016 16.8939 8.01C17.0729 8 17.244 8 17.447 8C17.6311 8 17.7781 8 18.1012 8H25.3563C25.6833 8 25.8284 8 26.0034 8C26.1785 8 26.3495 8 26.5546 8.008C26.9904 8.01317 27.4252 8.05229 27.855 8.125C28.318 8.20724 28.7659 8.35931 29.1833 8.576C29.6094 8.79599 29.9963 9.08451 30.3287 9.43001C30.6651 9.77597 30.9459 10.172 31.1609 10.604C31.3722 11.0372 31.5198 11.4986 31.599 11.974C31.6688 12.408 31.7066 12.8465 31.7121 13.286C31.7121 13.313 31.7121 13.341 31.7121 13.369C31.7116 13.3787 31.7116 13.3884 31.7121 13.398V13.425C31.7121 13.445 31.7121 13.464 31.7121 13.482V13.522C31.7121 13.562 31.7121 13.6 31.7121 13.651V13.751V13.87V22.1001V22.2381V22.3091C31.7121 22.4791 31.7121 22.5641 31.7051 22.6611C31.7016 23.1095 31.6648 23.5571 31.595 24.0001C31.5144 24.4788 31.3648 24.9433 31.1509 25.3791C30.936 25.8134 30.6541 26.2113 30.3157 26.5581C29.9797 26.9052 29.5895 27.1953 29.1603 27.4171C28.7384 27.6364 28.2853 27.7898 27.817 27.8721C27.3873 27.9455 26.9525 27.9846 26.5166 27.9891C26.2995 27.9941 26.1295 27.9971 25.9524 27.9971L17.8861 28.0001ZM17.454 9.48401C17.276 9.48401 17.1059 9.48401 16.9199 9.49101C16.5611 9.49749 16.2033 9.53092 15.8496 9.59101C15.5281 9.64818 15.2171 9.75372 14.9273 9.90401C14.6377 10.0549 14.3745 10.2518 14.1481 10.487L14.1391 10.496L14.1311 10.5L14.0981 10.536L14.0911 10.544L14.0771 10.558C14.03 10.609 14.018 10.623 13.997 10.642C13.897 10.742 13.797 10.842 13.6969 10.942C13.6289 11.01 13.5619 11.078 13.4849 11.157L13.4239 11.22L13.3338 11.312L10.8391 13.875C10.8041 13.909 10.7911 13.921 10.7811 13.93C10.7321 13.978 10.6811 14.03 10.6331 14.079L10.521 14.193L10.413 14.3L8.18539 16.589L8.03434 16.747L7.95032 16.8321L7.8643 16.9221V16.9291L7.78427 17.0131C7.62609 17.1731 7.47683 17.3417 7.33715 17.5181L7.29313 17.5691C7.25609 17.6083 7.22508 17.6527 7.20111 17.7011C7.14652 17.8973 7.14652 18.1048 7.20111 18.3011C7.22462 18.3485 7.25533 18.392 7.29213 18.4301L7.34015 18.4851C7.48436 18.6681 7.63899 18.8428 7.80328 19.0081C7.84929 19.0591 7.90331 19.1151 7.96732 19.1801L8.07736 19.2941L8.13037 19.3491L8.15938 19.3801L8.18139 19.4031L10.413 21.7001C10.518 21.8091 10.5651 21.8561 10.6251 21.9151L10.7691 22.0601L10.7791 22.0701L10.8351 22.1211L13.3288 24.6831L13.6509 25.0121L13.6649 25.0251L13.6969 25.0581C13.825 25.1891 13.907 25.2721 13.991 25.3581C14.015 25.3821 14.015 25.3821 14.0801 25.4501L14.0941 25.4651L14.1501 25.5251C14.3757 25.7567 14.6363 25.9514 14.9223 26.1021C15.2114 26.2515 15.5213 26.3567 15.8416 26.4141C16.1996 26.475 16.5617 26.5085 16.9249 26.5141C17.1069 26.5191 17.27 26.5211 17.452 26.5221H25.9544C26.1015 26.5221 26.2475 26.5221 26.4936 26.5141C26.8567 26.5086 27.2189 26.4752 27.5769 26.4141C27.9019 26.3567 28.2163 26.2502 28.5092 26.0981C28.8 25.9469 29.0648 25.7501 29.2934 25.5151C29.5227 25.279 29.7147 25.0092 29.8625 24.7151C30.0105 24.4133 30.114 24.0916 30.1696 23.7601C30.2305 23.3864 30.2639 23.0087 30.2697 22.6301V22.5811C30.2697 22.5081 30.2697 22.4351 30.2697 22.3181V22.2181C30.2697 22.1491 30.2697 22.1471 30.2697 22.0811V13.88V13.768C30.2697 13.659 30.2697 13.602 30.2697 13.545V13.512C30.2697 13.448 30.2697 13.39 30.2697 13.321C30.2652 12.9526 30.2338 12.5849 30.1756 12.221C30.1213 11.8936 30.0202 11.5757 29.8755 11.277C29.7283 10.983 29.5371 10.7133 29.3084 10.477C29.0835 10.2445 28.8224 10.0499 28.5352 9.90101C28.2478 9.75084 27.9391 9.64562 27.6199 9.58901C27.2602 9.52787 26.8964 9.49444 26.5316 9.48901C26.3905 9.48901 26.2165 9.48201 26.0004 9.48101H25.9334H25.3613H18.1012C17.7821 9.48101 17.6391 9.48201 17.454 9.48401Z" fill="#121212"/>
<path d="M17.8861 28.0001H17.452C17.2139 28.0001 17.0519 28.0001 16.9019 27.9921C16.466 27.9876 16.0312 27.9484 15.6015 27.8751C15.1371 27.7924 14.6879 27.64 14.2691 27.4231C13.8531 27.2059 13.474 26.9244 13.1458 26.5891C13.1188 26.5631 13.1008 26.5441 13.0458 26.4891C12.9117 26.3561 12.8187 26.2621 12.6777 26.1171C12.5656 26.0051 12.4776 25.9171 12.3056 25.7371L9.84286 23.2001C9.75783 23.1191 9.71382 23.0761 9.6428 23.0061C9.55277 22.9171 9.50376 22.8661 9.39173 22.7521L7.14609 20.4411L7.04606 20.3411L6.94003 20.2331C6.85201 20.1431 6.80199 20.0901 6.76498 20.0481C6.57675 19.8577 6.39878 19.6574 6.23183 19.4481C6.07572 19.2771 5.94958 19.081 5.85873 18.8681L5.83472 18.8011C5.67098 18.2857 5.67098 17.7324 5.83472 17.2171L5.85773 17.1521C5.94626 16.9378 6.07188 16.7407 6.22883 16.57C6.39247 16.3644 6.56676 16.1675 6.75098 15.98C6.827 15.898 6.88202 15.841 6.95104 15.771L7.01205 15.7C7.06607 15.645 7.10708 15.6 7.15409 15.551L9.39673 13.251L9.46875 13.178L9.49776 13.148L9.52977 13.116L9.57178 13.072L9.61279 13.03C9.67281 12.968 9.73783 12.904 9.82085 12.823L11.1842 11.423L11.2022 11.405L12.2875 10.291L12.3076 10.27C12.4616 10.112 12.5706 10 12.6767 9.89501C12.7827 9.79001 12.8857 9.68301 13.0078 9.56501L13.0448 9.52401C13.1048 9.45701 13.1148 9.44701 13.1288 9.43301C13.4628 9.08923 13.849 8.80034 14.2731 8.577C14.6952 8.36058 15.1474 8.20856 15.6145 8.126C16.0374 8.05478 16.4651 8.016 16.8939 8.01C17.0729 8 17.244 8 17.447 8C17.6311 8 17.7781 8 18.1012 8H25.3563C25.6833 8 25.8284 8 26.0034 8C26.1785 8 26.3495 8 26.5546 8.008C26.9904 8.01317 27.4252 8.05229 27.855 8.125C28.318 8.20724 28.7659 8.35931 29.1833 8.576C29.6094 8.79599 29.9963 9.08451 30.3287 9.43001C30.6651 9.77597 30.9459 10.172 31.1609 10.604C31.3722 11.0372 31.5198 11.4986 31.599 11.974C31.6688 12.408 31.7066 12.8465 31.7121 13.286C31.7121 13.313 31.7121 13.341 31.7121 13.369C31.7116 13.3787 31.7116 13.3884 31.7121 13.398V13.425C31.7121 13.445 31.7121 13.464 31.7121 13.482V13.522C31.7121 13.562 31.7121 13.6 31.7121 13.651V13.751V13.87V22.1001V22.2381V22.3091C31.7121 22.4791 31.7121 22.5641 31.7051 22.6611C31.7016 23.1095 31.6648 23.5571 31.595 24.0001C31.5144 24.4788 31.3648 24.9433 31.1509 25.3791C30.936 25.8134 30.6541 26.2113 30.3157 26.5581C29.9797 26.9052 29.5895 27.1953 29.1603 27.4171C28.7384 27.6364 28.2853 27.7898 27.817 27.8721C27.3873 27.9455 26.9525 27.9846 26.5166 27.9891C26.2995 27.9941 26.1295 27.9971 25.9524 27.9971L17.8861 28.0001ZM17.454 9.48401C17.276 9.48401 17.1059 9.48401 16.9199 9.49101C16.5611 9.49749 16.2033 9.53092 15.8496 9.59101C15.5281 9.64818 15.2171 9.75372 14.9273 9.90401C14.6377 10.0549 14.3745 10.2518 14.1481 10.487L14.1391 10.496L14.1311 10.5L14.0981 10.536L14.0911 10.544L14.0771 10.558C14.03 10.609 14.018 10.623 13.997 10.642C13.897 10.742 13.797 10.842 13.6969 10.942C13.6289 11.01 13.5619 11.078 13.4849 11.157L13.4239 11.22L13.3338 11.312L10.8391 13.875C10.8041 13.909 10.7911 13.921 10.7811 13.93C10.7321 13.978 10.6811 14.03 10.6331 14.079L10.521 14.193L10.413 14.3L8.18539 16.589L8.03434 16.747L7.95032 16.8321L7.8643 16.9221V16.9291L7.78427 17.0131C7.62609 17.1731 7.47683 17.3417 7.33715 17.5181L7.29313 17.5691C7.25609 17.6083 7.22508 17.6527 7.20111 17.7011C7.14652 17.8973 7.14652 18.1048 7.20111 18.3011C7.22462 18.3485 7.25533 18.392 7.29213 18.4301L7.34015 18.4851C7.48436 18.6681 7.63899 18.8428 7.80328 19.0081C7.84929 19.0591 7.90331 19.1151 7.96732 19.1801L8.07736 19.2941L8.13037 19.3491L8.15938 19.3801L8.18139 19.4031L10.413 21.7001C10.518 21.8091 10.5651 21.8561 10.6251 21.9151L10.7691 22.0601L10.7791 22.0701L10.8351 22.1211L13.3288 24.6831L13.6509 25.0121L13.6649 25.0251L13.6969 25.0581C13.825 25.1891 13.907 25.2721 13.991 25.3581C14.015 25.3821 14.015 25.3821 14.0801 25.4501L14.0941 25.4651L14.1501 25.5251C14.3757 25.7567 14.6363 25.9514 14.9223 26.1021C15.2114 26.2515 15.5213 26.3567 15.8416 26.4141C16.1996 26.475 16.5617 26.5085 16.9249 26.5141C17.1069 26.5191 17.27 26.5211 17.452 26.5221H25.9544C26.1015 26.5221 26.2475 26.5221 26.4936 26.5141C26.8567 26.5086 27.2189 26.4752 27.5769 26.4141C27.9019 26.3567 28.2163 26.2502 28.5092 26.0981C28.8 25.9469 29.0648 25.7501 29.2934 25.5151C29.5227 25.279 29.7147 25.0092 29.8625 24.7151C30.0105 24.4133 30.114 24.0916 30.1696 23.7601C30.2305 23.3864 30.2639 23.0087 30.2697 22.6301V22.5811C30.2697 22.5081 30.2697 22.4351 30.2697 22.3181V22.2181C30.2697 22.1491 30.2697 22.1471 30.2697 22.0811V13.88V13.768C30.2697 13.659 30.2697 13.602 30.2697 13.545V13.512C30.2697 13.448 30.2697 13.39 30.2697 13.321C30.2652 12.9526 30.2338 12.5849 30.1756 12.221C30.1213 11.8936 30.0202 11.5757 29.8755 11.277C29.7283 10.983 29.5371 10.7133 29.3084 10.477C29.0835 10.2445 28.8224 10.0499 28.5352 9.90101C28.2478 9.75084 27.9391 9.64562 27.6199 9.58901C27.2602 9.52787 26.8964 9.49444 26.5316 9.48901C26.3905 9.48901 26.2165 9.48201 26.0004 9.48101H25.9334H25.3613H18.1012C17.7821 9.48101 17.6391 9.48201 17.454 9.48401Z" stroke="#121212" stroke-width="1.0238"/>
<path d="M17.8002 15.4724L17.8002 15.4724L20.3279 18.0001L17.8003 20.5276C17.4283 20.8996 17.4283 21.5026 17.8003 21.8746C18.1722 22.2466 18.7753 22.2466 19.1472 21.8746L21.6749 19.347L24.2025 21.8746C24.2025 21.8746 24.2025 21.8746 24.2025 21.8746C24.5744 22.2466 25.1775 22.2466 25.5495 21.8746L25.5495 21.8746C25.9214 21.5027 25.9214 20.8996 25.5495 20.5277L25.4409 20.6363L25.5495 20.5277L23.0218 18L25.5495 15.4724L25.5495 15.4724C25.9214 15.1004 25.9214 14.4973 25.5495 14.1254L25.5495 14.1254C25.1775 13.7535 24.5744 13.7534 24.2025 14.1254C24.2025 14.1254 24.2025 14.1254 24.2025 14.1254L21.6749 16.6531L19.1472 14.1254C19.1472 14.1254 19.1472 14.1254 19.1472 14.1254C18.7752 13.7534 18.1722 13.7535 17.8002 14.1254L17.8002 14.1254C17.4283 14.4974 17.4283 15.1004 17.8002 15.4724Z" fill="#121212" stroke="#121212" stroke-width="0.30714"/>
</svg>
