<svg width="32" height="32" viewBox="0 0 32 32" fill="none" xmlns="http://www.w3.org/2000/svg">
<path fill-rule="evenodd" clip-rule="evenodd" d="M12.3654 16.1809C12.6898 15.8603 13.2129 15.8613 13.5352 16.1831L15.2463 17.8933V7.0452C15.2463 6.59093 15.6169 6.22217 16.0734 6.22217C16.5299 6.22217 16.9015 6.59093 16.9015 7.0452V19.8867C16.9015 20.2202 16.6996 20.5206 16.3892 20.6478C16.0798 20.775 15.7232 20.7033 15.4869 20.4682L12.3633 17.3449C12.2032 17.1846 12.1227 16.974 12.1227 16.7635C12.1227 16.5529 12.2032 16.3412 12.3654 16.1809ZM17.8353 18.1358C17.671 17.9754 17.5893 17.7638 17.5893 17.5511C17.5893 17.3427 17.6688 17.1332 17.8288 16.9717L18.6098 16.1851C18.9309 15.8623 19.454 15.859 19.7795 16.1786C20.105 16.4972 20.1071 17.0177 19.7859 17.3427L19.004 18.1304C18.6839 18.4532 18.1597 18.4564 17.8353 18.1358ZM10.9358 25.7708C10.9358 25.2963 10.5652 24.911 10.1087 24.911C8.38689 24.911 6.98621 23.4549 6.98621 21.665V16.2225C6.98621 14.4404 8.38259 12.9888 10.098 12.9888H11.1088C11.5653 12.9888 11.9359 12.6035 11.9359 12.1289C11.9359 11.6544 11.5653 11.2691 11.1088 11.2691H10.098C7.46957 11.2691 5.33203 13.4912 5.33203 16.2225V21.665C5.33203 24.403 7.47494 26.6306 10.1087 26.6306C10.5652 26.6306 10.9358 26.2454 10.9358 25.7708ZM26.8151 16.2341V21.6766C26.8151 24.4078 24.6775 26.631 22.0491 26.631H13.8706C13.4141 26.631 13.0446 26.2447 13.0446 25.7712C13.0446 25.2956 13.4141 24.9103 13.8706 24.9103H22.0491C23.7645 24.9103 25.1609 23.4598 25.1609 21.6766V16.2341C25.1609 14.4441 23.7602 12.9881 22.0384 12.9881H21.0383C20.5818 12.9881 20.2123 12.6039 20.2123 12.1283C20.2123 11.6537 20.5818 11.2684 21.0383 11.2684H22.0384C24.6722 11.2684 26.8151 13.4961 26.8151 16.2341Z" fill="#121212"/>
</svg>
