<svg width="32" height="32" viewBox="0 0 32 32" fill="none" xmlns="http://www.w3.org/2000/svg">
<rect opacity="0.01" x="2.66797" y="2.66663" width="26.6667" height="26.6667" fill="#121212"/>
<path fill-rule="evenodd" clip-rule="evenodd" d="M26.8914 16.0887C26.6164 15.3858 26.1363 14.7819 25.5136 14.3554V14.3109C25.5136 14.022 25.4914 13.7331 25.4691 13.4554C25.4042 12.8879 25.2927 12.3268 25.1358 11.7776C25.1247 11.7331 25.1108 11.6915 25.0969 11.6498C25.083 11.6081 25.0691 11.5665 25.058 11.522C24.0614 8.36319 21.4895 5.95279 18.2728 5.16279C15.056 4.37279 11.6601 5.31758 9.31358 7.65537L9.31357 7.65538C9.20246 7.76649 9.10247 7.86649 9.00247 7.97759L8.97517 8.00791C8.88253 8.11074 8.78234 8.22195 8.69136 8.33315C8.4035 8.6813 8.13991 9.04884 7.90247 9.43315C7.89633 9.43315 7.89136 9.43812 7.89136 9.44426C7.66914 9.83315 7.45803 10.2331 7.26914 10.6554L7.25803 10.6665C7.14692 10.9443 7.04692 11.2331 6.94692 11.522L6.94692 11.522L6.94691 11.522C6.92469 11.5943 6.90247 11.6693 6.88025 11.7443L6.88024 11.7443C6.85802 11.8193 6.8358 11.8943 6.81358 11.9665C6.76613 12.1156 6.729 12.2678 6.70247 12.422C6.57008 13.0507 6.49937 13.6908 6.49136 14.3331C6.48522 14.3331 6.48025 14.3381 6.48025 14.3443C5.72815 14.857 5.19044 15.628 4.96914 16.5109C4.84477 17.0165 4.82586 17.5422 4.91358 18.0554L5.28025 20.1331C5.3129 20.31 5.35745 20.4845 5.41358 20.6554C5.41358 20.6609 5.41636 20.6665 5.41914 20.672C5.42191 20.6776 5.42469 20.6831 5.42469 20.6887C5.84151 21.9303 6.88659 22.8569 8.16914 23.122C8.42443 23.1796 8.68521 23.2094 8.94692 23.2109C9.16281 23.2085 9.37823 23.1899 9.59136 23.1554C10.4074 23.0142 11.0032 22.3058 11.0025 21.4776C11.0061 21.3771 10.9987 21.2765 10.9802 21.1776L9.92469 15.122C9.77489 14.3064 9.06508 13.7133 8.2358 13.7109H8.18025C8.20247 13.4665 8.2358 13.2331 8.28025 12.9998C8.30298 12.8531 8.3364 12.7083 8.38025 12.5665C9.25523 8.97732 12.5153 6.48462 16.2083 6.58096C19.9013 6.6773 23.0269 9.33659 23.7136 12.9665C23.7677 13.223 23.8048 13.4828 23.8247 13.7443H23.7914C22.9668 13.743 22.26 14.3328 22.1136 15.1443L21.058 21.1554C20.8969 22.081 21.5117 22.9636 22.4358 23.1332C22.6489 23.1677 22.8643 23.1863 23.0802 23.1887C23.3383 23.1872 23.5954 23.1574 23.8469 23.0998C23.8469 23.1054 23.8441 23.1081 23.8414 23.1109C23.8386 23.1137 23.8358 23.1165 23.8358 23.122C23.3374 24.511 22.0226 25.4393 20.5469 25.4443H18.2247V27.1109H20.5469C23.3407 27.1016 25.625 24.8811 25.7136 22.0887V22.0665C26.1016 21.6776 26.3977 21.2068 26.5802 20.6887C26.5888 20.6798 26.5928 20.6676 26.5914 20.6554C26.6475 20.4845 26.692 20.31 26.7247 20.1331L27.0914 18.0443C27.2115 17.3866 27.1421 16.7084 26.8914 16.0887ZM7.0135 20.2008L6.99573 20.1363C6.96863 20.0386 6.94287 19.9457 6.92461 19.8452L6.55795 17.7675C6.49183 17.414 6.52255 17.0493 6.64684 16.7119C6.89205 16.025 7.48497 15.521 8.20239 15.3897L8.2135 15.3786H8.23572C8.25694 15.3765 8.27624 15.391 8.28017 15.4119L9.33572 21.4564C9.34132 21.4681 9.34066 21.4819 9.33395 21.4931C9.32725 21.5042 9.3154 21.5113 9.30239 21.5119C9.18509 21.5335 9.06611 21.5447 8.94684 21.5452C8.7035 21.5462 8.4622 21.5009 8.23572 21.4119C8.22973 21.4059 8.22193 21.402 8.2135 21.4008C7.99973 21.3189 7.80081 21.2025 7.62461 21.0564C7.35265 20.8267 7.14256 20.5325 7.0135 20.2008ZM25.4468 17.7673V17.7562C25.5078 17.4025 25.4772 17.0391 25.3579 16.7006C25.1882 16.2654 24.8796 15.8983 24.4801 15.6562C24.2703 15.5356 24.0409 15.4528 23.8023 15.4117V15.3895L23.7912 15.3784V15.4117C23.7912 15.4117 23.7579 15.4117 23.7579 15.4339L22.7023 21.445C22.8207 21.4995 22.9499 21.5261 23.0801 21.5228C23.3187 21.5219 23.5554 21.4806 23.7801 21.4006C24.1051 21.2755 24.3949 21.0734 24.6246 20.8117C24.8558 20.5319 25.0159 20.2002 25.0912 19.845L25.4468 17.7673Z" fill="#121212"/>
</svg>
