<svg width="36" height="36" viewBox="0 0 36 36" fill="none" xmlns="http://www.w3.org/2000/svg">
<g clip-path="url(#clip0_5092_12346)">
<path d="M30.0641 18.2528C29.883 17.9745 29.883 17.6151 30.0641 17.3369L31.0716 15.7882C31.9894 14.3776 31.371 12.4824 29.8024 11.8819L28.077 11.2213C27.767 11.1025 27.5556 10.8117 27.5386 10.4802L27.4434 8.63511C27.3568 6.95474 25.7426 5.78445 24.1205 6.22092L22.3364 6.70061C22.0159 6.78672 21.6738 6.67567 21.4652 6.4175L20.3037 4.98063C19.2459 3.67207 17.2524 3.67417 16.1963 4.98063L15.0348 6.41755C14.8261 6.67577 14.4842 6.78672 14.1636 6.70067L12.3794 6.22098C10.754 5.78386 9.14286 6.95803 9.05643 8.63517L8.96132 10.4802C8.94418 10.8117 8.73289 11.1026 8.42289 11.2213L6.69757 11.8819C5.12567 12.4836 4.51224 14.3804 5.42824 15.7882L6.43585 17.3369C6.61685 17.6151 6.61685 17.9746 6.43585 18.2528L5.4284 19.8014C4.51051 21.2122 5.12912 23.1074 6.69763 23.7077L8.42305 24.3684C8.73306 24.4871 8.9444 24.778 8.96148 25.1095L9.05659 26.9546C9.14323 28.6353 10.7577 29.8051 12.3796 29.3688L14.1637 28.8891C14.4843 28.8031 14.8262 28.914 15.0349 29.1722L16.1964 30.609C17.2544 31.9179 19.2478 31.9152 20.3037 30.609L21.4652 29.1722C21.6739 28.9141 22.016 28.8031 22.3364 28.8891L24.1206 29.3688C25.7456 29.806 27.3571 28.6319 27.4436 26.9546L27.5387 25.1095C27.5558 24.778 27.7671 24.4871 28.0771 24.3684L29.8025 23.7078C31.3743 23.1061 31.9877 21.2094 31.0718 19.8014L30.0641 18.2528ZM29.1585 22.0259L27.433 22.6865C26.4583 23.0597 25.7938 23.9744 25.7401 25.0167L25.6449 26.8618C25.6174 27.3964 25.1042 27.7682 24.5881 27.6296L22.8039 27.1499C21.796 26.8787 20.7207 27.2283 20.0646 28.04L18.9032 29.4768C18.5667 29.8931 17.9328 29.8922 17.5969 29.4768L16.4355 28.04C15.9269 27.4108 15.1665 27.0594 14.3807 27.0594C14.1528 27.0594 13.9227 27.0889 13.696 27.1499L11.9118 27.6296C11.3947 27.7684 10.8826 27.3953 10.855 26.8618L10.7599 25.0167C10.7062 23.9744 10.0416 23.0597 9.06693 22.6865L7.34151 22.0258C6.84161 21.8344 6.6466 21.2313 6.93791 20.7836L7.94546 19.235C8.51466 18.3601 8.51466 17.2295 7.94546 16.3547L6.93791 14.8061C6.64595 14.3574 6.84263 13.7548 7.34156 13.5638L9.06699 12.9031C10.0417 12.5299 10.7062 11.6153 10.76 10.573L10.8551 8.72791C10.8826 8.19331 11.3959 7.82149 11.9119 7.96009L13.6961 8.43978C14.704 8.71088 15.7793 8.36137 16.4354 7.54969L17.5969 6.11283C17.9335 5.69661 18.5674 5.69748 18.9032 6.11283L20.0647 7.54975C20.7209 8.36143 21.796 8.71093 22.804 8.43978L24.5882 7.96009C25.1053 7.82122 25.6175 8.19438 25.6451 8.72791L25.7401 10.573C25.7938 11.6153 26.4584 12.53 27.433 12.9031L29.1585 13.5638C29.6584 13.7551 29.8534 14.3583 29.5621 14.8061L28.5546 16.3546C27.9853 17.2295 27.9853 18.3601 28.5546 19.235L29.5621 20.7836C29.854 21.2323 29.6574 21.8349 29.1585 22.0259Z" fill="#121212"/>
<path d="M22.7501 13.2061C22.3985 12.8545 21.8283 12.8545 21.4766 13.2061L13.0723 21.6104C12.7207 21.9621 12.7207 22.5322 13.0723 22.8839C13.2482 23.0597 13.4786 23.1476 13.7091 23.1476C13.9395 23.1476 14.17 23.0597 14.3458 22.8839L22.7501 14.4795C23.1018 14.1279 23.1018 13.5577 22.7501 13.2061Z" fill="#121212"/>
<path d="M14.3086 12.9424C13.4815 12.9424 12.8086 13.6153 12.8086 14.4424C12.8086 15.2695 13.4816 15.9424 14.3086 15.9424C15.1357 15.9424 15.8086 15.2695 15.8086 14.4424C15.8086 13.6153 15.1357 12.9424 14.3086 12.9424Z" fill="#121212"/>
<path d="M20.9102 20.5454C20.083 20.5454 19.4102 21.2183 19.4102 22.0454C19.4102 22.8725 20.0831 23.5454 20.9102 23.5454C21.7372 23.5454 22.4102 22.8725 22.4102 22.0454C22.4102 21.2183 21.7373 20.5454 20.9102 20.5454Z" fill="#121212"/>
</g>
<defs>
<clipPath id="clip0_5092_12346">
<rect width="36" height="36" fill="white"/>
</clipPath>
</defs>
</svg>
