<svg width="36" height="36" viewBox="0 0 36 36" fill="none" xmlns="http://www.w3.org/2000/svg">
<g clip-path="url(#clip0_5092_12365)">
<path d="M7.35168 8.56767C7.30623 8.50071 7.25346 8.43907 7.19434 8.3839C7.13631 8.32362 7.07205 8.26974 7.00265 8.22312C6.85879 8.12981 6.70012 8.06182 6.53346 8.02211C6.32848 7.98355 6.11722 7.99557 5.91788 8.05709C5.71853 8.11861 5.53707 8.22782 5.38909 8.37531C5.32201 8.43505 5.2633 8.50361 5.21457 8.57917C5.16629 8.65508 5.12419 8.73477 5.08869 8.81748C5.06395 8.89102 5.04294 8.96578 5.02575 9.04145C5.00884 9.12364 5.00022 9.20733 5 9.29126C5.00183 9.46422 5.03478 9.63542 5.09727 9.79662C5.16738 9.94787 5.26432 10.0851 5.38336 10.2015C5.49859 10.3297 5.64283 10.4281 5.80392 10.4886C5.95997 10.5572 6.12852 10.5924 6.29886 10.592C6.46895 10.5928 6.63744 10.5591 6.79425 10.493C6.95107 10.4269 7.09298 10.3297 7.2115 10.2072C7.33094 10.0857 7.42782 9.9437 7.49759 9.788C7.55997 9.62986 7.592 9.46133 7.592 9.29126C7.59178 9.20733 7.58316 9.12364 7.56625 9.04145C7.55185 8.96096 7.52683 8.88276 7.49187 8.80889C7.45582 8.7227 7.4087 8.64159 7.35168 8.56767Z" fill="#121212"/>
<rect x="9.80078" y="8" width="19.2" height="2.5881" rx="1.29405" fill="#121212"/>
<path d="M7.35168 17.2078C7.30623 17.1409 7.25346 17.0792 7.19434 17.024C7.13631 16.9638 7.07205 16.9099 7.00265 16.8633C6.85879 16.77 6.70012 16.702 6.53346 16.6622C6.32848 16.6237 6.11722 16.6357 5.91788 16.6972C5.71853 16.7587 5.53707 16.868 5.38909 17.0155C5.32201 17.0752 5.2633 17.1438 5.21457 17.2193C5.16629 17.2952 5.12419 17.3749 5.08869 17.4576C5.06395 17.5312 5.04294 17.6059 5.02575 17.6816C5.00884 17.7638 5.00022 17.8475 5 17.9314C5.00183 18.1044 5.03478 18.2756 5.09727 18.4368C5.16738 18.588 5.26432 18.7252 5.38336 18.8416C5.49859 18.9698 5.64283 19.0683 5.80392 19.1288C5.95997 19.1973 6.12852 19.2325 6.29886 19.2321C6.46895 19.2329 6.63744 19.1992 6.79425 19.1331C6.95107 19.067 7.09298 18.9698 7.2115 18.8474C7.33094 18.7258 7.42782 18.5838 7.49759 18.4281C7.55997 18.27 7.592 18.1015 7.592 17.9314C7.59178 17.8475 7.58316 17.7638 7.56625 17.6816C7.55185 17.6011 7.52683 17.5229 7.49187 17.449C7.45582 17.3628 7.4087 17.2817 7.35168 17.2078Z" fill="#121212"/>
<rect x="9.80078" y="16.6401" width="19.2" height="2.5881" rx="1.29405" fill="#121212"/>
<rect x="9.80078" y="26.2402" width="19.2" height="2.5881" rx="1.29405" fill="#121212"/>
<path d="M7.35168 26.8079C7.30623 26.7409 7.25346 26.6793 7.19434 26.6241C7.13631 26.5639 7.07205 26.51 7.00265 26.4634C6.85879 26.37 6.70012 26.3021 6.53346 26.2623C6.32848 26.2238 6.11722 26.2358 5.91788 26.2973C5.71853 26.3588 5.53707 26.4681 5.38909 26.6155C5.32201 26.6753 5.2633 26.7438 5.21457 26.8194C5.16629 26.8953 5.12419 26.975 5.08869 27.0577C5.06395 27.1313 5.04294 27.206 5.02575 27.2817C5.00884 27.3639 5.00022 27.4476 5 27.5315C5.00183 27.7045 5.03478 27.8757 5.09727 28.0369C5.16738 28.1881 5.26432 28.3253 5.38336 28.4417C5.49859 28.5699 5.64283 28.6684 5.80392 28.7289C5.95997 28.7974 6.12852 28.8326 6.29886 28.8322C6.46895 28.833 6.63744 28.7993 6.79425 28.7332C6.95107 28.6671 7.09298 28.5699 7.2115 28.4475C7.33094 28.3259 7.42782 28.1839 7.49759 28.0282C7.55997 27.8701 7.592 27.7016 7.592 27.5315C7.59178 27.4476 7.58316 27.3639 7.56625 27.2817C7.55185 27.2012 7.52683 27.123 7.49187 27.0491C7.45582 26.9629 7.4087 26.8818 7.35168 26.8079Z" fill="#121212"/>
</g>
<defs>
<clipPath id="clip0_5092_12365">
<rect width="36" height="36" fill="white"/>
</clipPath>
</defs>
</svg>
