<svg width="36" height="36" viewBox="0 0 36 36" fill="none" xmlns="http://www.w3.org/2000/svg">
<g clip-path="url(#clip0_5092_12357)">
<path d="M8.49456 29.0997H28.0669C28.9899 29.0984 29.875 28.7324 30.5292 28.0812C31.1834 27.4301 31.5536 26.5467 31.5591 25.6237V13.3839C31.5579 12.4583 31.1895 11.571 30.5347 10.9168C29.88 10.2625 28.9925 9.8947 28.0669 9.89408H7.24087C7.46128 9.12201 7.91543 8.43715 8.5409 7.93367C9.21983 7.38333 10.0677 7.0838 10.9417 7.08555H20.7278C20.9924 7.0679 21.2403 6.95037 21.4215 6.75675C21.6026 6.56313 21.7034 6.30791 21.7034 6.04277C21.7034 5.77764 21.6026 5.52242 21.4215 5.3288C21.2403 5.13518 20.9924 5.01765 20.7278 5H10.9417C9.36702 5.00123 7.85715 5.62696 6.74327 6.73994C5.62939 7.85292 5.00245 9.36226 5 10.9369C5.0008 11.157 5.07138 11.3712 5.20161 11.5486C5.07195 11.7264 5.00143 11.9404 5 12.1604V25.6237C5.00551 26.5471 5.37604 27.4308 6.03073 28.082C6.68543 28.7332 7.57113 29.0991 8.49456 29.0997ZM29.4688 25.6237C29.4658 25.9916 29.3184 26.3434 29.0583 26.6035C28.7982 26.8636 28.4463 27.0111 28.0784 27.0141H8.49456C8.12352 27.016 7.76688 26.8707 7.50278 26.61C7.23869 26.3494 7.08867 25.9948 7.08561 25.6237V12.1604C7.08586 12.1005 7.08043 12.0408 7.06939 11.9819H28.0599C28.4295 11.9856 28.7828 12.1349 29.0431 12.3973C29.3034 12.6598 29.4497 13.0143 29.4503 13.3839L29.4688 25.6237Z" fill="#121212"/>
<path d="M25.6251 18.4565H21.9521C21.6876 18.4742 21.4396 18.5917 21.2585 18.7853C21.0773 18.979 20.9766 19.2342 20.9766 19.4993C20.9766 19.7645 21.0773 20.0197 21.2585 20.2133C21.4396 20.4069 21.6876 20.5244 21.9521 20.5421H25.6251C25.8897 20.5244 26.1376 20.4069 26.3188 20.2133C26.4999 20.0197 26.6007 19.7645 26.6007 19.4993C26.6007 19.2342 26.4999 18.979 26.3188 18.7853C26.1376 18.5917 25.8897 18.4742 25.6251 18.4565Z" fill="#121212"/>
<path d="M25.6233 7.08557C25.7593 7.08826 25.8944 7.0622 26.0196 7.0091C26.1476 6.95567 26.2635 6.87684 26.3602 6.77738C26.4579 6.68075 26.5353 6.56558 26.5878 6.43864C26.6403 6.3117 26.667 6.17554 26.6661 6.03817C26.667 5.97038 26.66 5.90273 26.6453 5.83656C26.6309 5.76903 26.6124 5.70247 26.5897 5.63728C26.5598 5.57448 26.5266 5.51336 26.49 5.45421C26.4505 5.40013 26.4072 5.34901 26.3602 5.30127C26.1641 5.10736 25.8991 4.99904 25.6233 5.00003C25.348 4.99807 25.0827 5.10366 24.8841 5.29432C24.8359 5.34632 24.791 5.40127 24.7497 5.45885C24.7143 5.51352 24.6848 5.57178 24.6616 5.63264C24.6324 5.69615 24.6114 5.76312 24.5991 5.83193C24.5843 5.8981 24.5773 5.96575 24.5782 6.03353C24.5779 6.17083 24.6048 6.30684 24.6573 6.43371C24.7098 6.56058 24.7868 6.6758 24.8841 6.77274C24.9801 6.87176 25.0949 6.95048 25.2219 7.00422C25.3489 7.05796 25.4854 7.08563 25.6233 7.08557Z" fill="#121212"/>
</g>
<defs>
<clipPath id="clip0_5092_12357">
<rect width="36" height="36" fill="white"/>
</clipPath>
</defs>
</svg>
