<svg width="37" height="37" viewBox="0 0 37 37" fill="none" xmlns="http://www.w3.org/2000/svg">
<g clip-path="url(#clip0_5784_658)">
<path d="M18.25 13.8146C19.9235 13.8104 21.5641 14.2792 22.9827 15.1668C24.4014 16.0545 25.5402 17.325 26.2679 18.8317C25.5366 20.3358 24.3968 21.6038 22.9789 22.4909C21.561 23.378 19.9221 23.8485 18.2495 23.8485C16.5768 23.8485 14.9379 23.378 13.52 22.4909C12.1021 21.6038 10.9624 20.3358 10.2311 18.8317C10.9589 17.3248 12.0978 16.0542 13.5166 15.1666C14.9355 14.2789 16.5763 13.8102 18.25 13.8146ZM18.25 11.9907C16.0886 11.994 13.9783 12.6485 12.1945 13.8688C10.4107 15.0891 9.03606 16.8186 8.25 18.8317C9.03315 20.8468 10.407 22.5783 12.1915 23.7992C13.976 25.02 16.0878 25.6733 18.25 25.6733C20.4122 25.6733 22.524 25.02 24.3085 23.7992C26.093 22.5783 27.4669 20.8468 28.25 18.8317C27.4639 16.8186 26.0893 15.0891 24.3055 13.8688C22.5217 12.6485 20.4114 11.994 18.25 11.9907ZM18.25 16.551C18.7015 16.5494 19.1433 16.6817 19.5196 16.9313C19.8958 17.1809 20.1895 17.5365 20.3634 17.9531C20.5374 18.3697 20.5837 18.8285 20.4967 19.2715C20.4096 19.7144 20.193 20.1216 19.8743 20.4414C19.5557 20.7612 19.1492 20.9793 18.7065 21.0679C18.2638 21.1566 17.8048 21.112 17.3875 20.9396C16.9702 20.7672 16.6134 20.4749 16.3624 20.0997C16.1114 19.7244 15.9774 19.2831 15.9774 18.8317C15.9768 18.5328 16.0352 18.2366 16.1491 17.9602C16.263 17.6838 16.4302 17.4326 16.6413 17.2208C16.8523 17.009 17.103 16.8408 17.379 16.7259C17.655 16.611 17.951 16.5516 18.25 16.551ZM18.25 14.7271C17.4374 14.7242 16.6423 14.9625 15.9652 15.4117C15.2882 15.8609 14.7597 16.501 14.4467 17.2507C14.1338 18.0005 14.0504 18.8262 14.2071 19.6234C14.3638 20.4206 14.7536 21.1533 15.3272 21.7289C15.9007 22.3044 16.6322 22.6968 17.4289 22.8563C18.2257 23.0159 19.0519 22.9355 19.8029 22.6253C20.5539 22.315 21.1959 21.7889 21.6476 21.1136C22.0994 20.4383 22.3405 19.6442 22.3405 18.8317C22.3405 17.7457 21.91 16.7039 21.1433 15.9345C20.3766 15.1652 19.3362 14.731 18.25 14.7271Z" fill="#121212"/>
</g>
<rect x="25.6778" y="9.88574" width="2.10509" height="23.156" rx="1.05255" transform="rotate(45 25.6778 9.88574)" fill="#121212"/>
<defs>
<clipPath id="clip0_5784_658">
<rect width="20" height="13.682" fill="white" transform="translate(8.25 11.9907)"/>
</clipPath>
</defs>
</svg>
