<svg width="32" height="32" viewBox="0 0 32 32" fill="none" xmlns="http://www.w3.org/2000/svg">
<path d="M15.5547 5.33337C13.1898 5.33326 10.8979 6.15318 9.06971 7.65341C7.2415 9.15365 5.99003 11.2414 5.52855 13.5609C5.06707 15.8804 5.42412 18.2881 6.53887 20.3739C7.65362 22.4597 9.45709 24.0944 11.642 24.9995C13.8269 25.9046 16.2581 26.0241 18.5212 25.3377C20.7844 24.6513 22.7395 23.2014 24.0535 21.235C25.3674 19.2687 25.959 16.9076 25.7272 14.554C25.4955 12.2004 24.4549 9.99996 22.7827 8.32762C20.8657 6.41056 18.2658 5.3335 15.5547 5.33337V5.33337ZM15.5547 24.2444C13.5445 24.2446 11.5964 23.5478 10.0423 22.2727C8.48831 20.9975 7.42448 19.223 7.03213 17.2514C6.63978 15.2799 6.94318 13.2333 7.89064 11.4603C8.8381 9.68738 10.371 8.29781 12.2281 7.52838C14.0853 6.75894 16.1518 6.65726 18.0755 7.24064C19.9992 7.82403 21.6611 9.05639 22.778 10.7278C23.895 12.3991 24.3979 14.406 24.201 16.4066C24.0041 18.4072 23.1196 20.2776 21.6983 21.6991C20.0689 23.3286 17.8591 24.2442 15.5547 24.2444V24.2444Z" fill="#121212"/>
<path d="M16.1057 16.1158L16.0801 15.137L16.0477 13.4129C16.0477 13.3473 16.0348 13.2824 16.0097 13.2219C15.9846 13.1613 15.9479 13.1063 15.9015 13.0599C15.8552 13.0136 15.8001 12.9768 15.7396 12.9517C15.679 12.9266 15.6141 12.9137 15.5485 12.9137C15.483 12.9137 15.4181 12.9266 15.3575 12.9517C15.2969 12.9768 15.2419 13.0136 15.1956 13.0599C15.1492 13.1063 15.1124 13.1613 15.0874 13.2219C15.0623 13.2824 15.0494 13.3473 15.0494 13.4129L15.017 15.137L14.9914 16.1158L14.9395 18.9354L14.9131 19.9074L14.9131 20.0565C14.9099 20.1418 14.924 20.2269 14.9546 20.3067C14.9851 20.3865 15.0313 20.4593 15.0906 20.5208C15.1499 20.5823 15.221 20.6312 15.2996 20.6646C15.3782 20.698 15.4627 20.7152 15.5481 20.7152C15.6335 20.7152 15.7181 20.698 15.7967 20.6646C15.8753 20.6312 15.9463 20.5823 16.0056 20.5208C16.0649 20.4593 16.1112 20.3865 16.1417 20.3067C16.1722 20.2269 16.1863 20.1418 16.1832 20.0565L16.1832 19.9074L16.1542 18.9354L16.1057 16.1158Z" fill="#121212"/>
<path d="M16.4336 11.0093C16.4336 10.5254 16.0413 10.1331 15.5574 10.1331C15.0735 10.1331 14.6812 10.5254 14.6812 11.0093C14.6812 11.4932 15.0735 11.8855 15.5574 11.8855C16.0413 11.8855 16.4336 11.4932 16.4336 11.0093Z" fill="#121212"/>
</svg>
