<svg width="32" height="32" viewBox="0 0 32 32" fill="none" xmlns="http://www.w3.org/2000/svg">
<path d="M17.7988 14.6206H25.6188C25.8124 14.6207 25.9982 14.5444 26.1359 14.4084C26.2736 14.2724 26.3522 14.0876 26.3547 13.8941V13.8941V6.06935C26.3522 5.8758 26.2736 5.691 26.1359 5.55501C25.9982 5.41901 25.8124 5.34276 25.6188 5.34277H17.7988C17.604 5.34399 17.4175 5.42192 17.2798 5.55966C17.142 5.6974 17.0641 5.88387 17.0629 6.07867V13.9034C17.0597 14.0013 17.0763 14.0989 17.1117 14.1904C17.147 14.2818 17.2004 14.3652 17.2686 14.4356C17.3368 14.5059 17.4185 14.5619 17.5088 14.6001C17.5991 14.6383 17.6961 14.6579 17.7941 14.6579V14.6579L17.7988 14.6206ZM18.5253 6.83319H24.8736V13.1675H18.53L18.5253 6.83319Z" fill="#121212"/>
<path d="M13.888 17.0659H6.06327C5.96685 17.0659 5.87139 17.085 5.78237 17.122C5.69334 17.1591 5.61252 17.2133 5.54456 17.2817C5.47659 17.3501 5.42283 17.4313 5.38636 17.5205C5.34988 17.6098 5.33143 17.7054 5.33205 17.8018V25.6265C5.33205 25.8204 5.40909 26.0064 5.54622 26.1436C5.68335 26.2807 5.86934 26.3577 6.06327 26.3577H13.888C14.0819 26.3577 14.2679 26.2807 14.4051 26.1436C14.5422 26.0064 14.6192 25.8204 14.6192 25.6265V25.6265V17.8018C14.6205 17.7056 14.6026 17.6101 14.5666 17.5209C14.5306 17.4317 14.4773 17.3505 14.4097 17.282C14.3421 17.2136 14.2616 17.1592 14.1729 17.1221C14.0841 17.085 13.9889 17.0659 13.8926 17.0659V17.0659H13.888ZM13.1567 24.9046H6.79451V18.533H13.1567V24.9046Z" fill="#121212"/>
<path d="M17.8008 22.4454H25.6208C25.8144 22.4454 26.0002 22.3691 26.1379 22.2331C26.2757 22.0971 26.3543 21.9123 26.3567 21.7188V21.7188V17.8064C26.3677 17.7104 26.3597 17.6131 26.3332 17.5202C26.3066 17.4273 26.262 17.3405 26.2018 17.2648C26.1417 17.1891 26.0673 17.126 25.9828 17.0791C25.8983 17.0322 25.8054 17.0024 25.7093 16.9914C25.6133 16.9804 25.5161 16.9884 25.4231 17.0149C25.3302 17.0415 25.2434 17.0861 25.1677 17.1462C25.092 17.2064 25.0289 17.2808 24.982 17.3653C24.9351 17.4498 24.9053 17.5427 24.8943 17.6388C24.8919 17.6698 24.8919 17.7009 24.8943 17.7319V20.9922H22.4537V17.8157C22.4537 17.6206 22.3762 17.4334 22.2382 17.2954C22.1002 17.1574 21.913 17.0799 21.7178 17.0799H17.8101C17.6149 17.0799 17.4278 17.1574 17.2898 17.2954C17.1517 17.4334 17.0742 17.6206 17.0742 17.8157V21.7281C17.0754 21.9225 17.1535 22.1084 17.2914 22.2454C17.4293 22.3824 17.6157 22.4593 17.8101 22.4593L17.8008 22.4454ZM18.5413 18.547H20.9866V20.9922H18.5413V18.547Z" fill="#121212"/>
<path d="M21.7108 24.9045H17.7985C17.614 24.9193 17.4419 25.0029 17.3163 25.1389C17.1908 25.2748 17.1211 25.4531 17.1211 25.6381C17.1211 25.8232 17.1908 26.0014 17.3163 26.1374C17.4419 26.2733 17.614 26.357 17.7985 26.3717H21.7108C21.8982 26.3697 22.0778 26.2963 22.2129 26.1665C22.348 26.0367 22.4285 25.8603 22.438 25.6732C22.4475 25.486 22.3853 25.3023 22.264 25.1595C22.1427 25.0167 21.9716 24.9255 21.7854 24.9045H21.7108Z" fill="#121212"/>
<path d="M13.8873 5.34277H9.97025C9.77631 5.34277 9.59031 5.41981 9.45318 5.55695C9.31605 5.69408 9.23901 5.88008 9.23901 6.07401V6.07401V13.8941C9.2346 13.9928 9.25026 14.0914 9.28503 14.1839C9.3198 14.2764 9.37297 14.3609 9.44131 14.4323C9.50966 14.5037 9.59176 14.5605 9.68268 14.5993C9.77359 14.6381 9.87142 14.658 9.97025 14.6579H13.8873C14.0717 14.6432 14.2439 14.5595 14.3694 14.4236C14.4949 14.2876 14.5647 14.1094 14.5647 13.9243C14.5647 13.7393 14.4949 13.561 14.3694 13.4251C14.2439 13.2891 14.0717 13.2055 13.8873 13.1908H10.7108V10.7455H13.8873C13.9851 10.7462 14.082 10.7273 14.1725 10.69C14.2629 10.6527 14.345 10.5978 14.414 10.5284C14.4829 10.459 14.5373 10.3766 14.5741 10.2859C14.6108 10.1952 14.6291 10.0982 14.6278 10.0003V10.0003V6.08799C14.6266 5.89319 14.5487 5.70672 14.4109 5.56898C14.2732 5.43124 14.0867 5.35331 13.8919 5.35209L13.8873 5.34277ZM13.1607 9.26444H10.7155V6.81922H13.1607V9.26444Z" fill="#121212"/>
<path d="M6.06326 10.7082C6.25719 10.7082 6.44319 10.6312 6.58033 10.494C6.71746 10.3569 6.7945 10.1709 6.7945 9.97696V9.97696V6.06461C6.7945 5.96859 6.77559 5.8735 6.73884 5.78478C6.70209 5.69606 6.64823 5.61545 6.58033 5.54755C6.51242 5.47965 6.43182 5.42578 6.3431 5.38904C6.25438 5.35229 6.15929 5.33337 6.06326 5.33337C5.96723 5.33337 5.87215 5.35229 5.78343 5.38904C5.69471 5.42578 5.61411 5.47965 5.5462 5.54755C5.4783 5.61545 5.42444 5.69606 5.38769 5.78478C5.35094 5.8735 5.33203 5.96859 5.33203 6.06461V6.06461V10.0003C5.33203 10.1942 5.40907 10.3802 5.5462 10.5173C5.68334 10.6544 5.86932 10.7315 6.06326 10.7315" fill="#121212"/>
<ellipse cx="6.1471" cy="13.9685" rx="0.815073" ry="0.815074" fill="#121212"/>
<ellipse cx="21.7916" cy="10.0563" rx="0.815074" ry="0.815073" fill="#121212"/>
<ellipse cx="25.6901" cy="25.7196" rx="0.815072" ry="0.815075" fill="#121212"/>
<ellipse cx="10.0534" cy="21.798" rx="0.815074" ry="0.815075" fill="#121212"/>
</svg>
