<svg width="36" height="36" viewBox="0 0 36 36" fill="none" xmlns="http://www.w3.org/2000/svg">
<g id="Icon_simple/Face_ID">
<g id="Group 4836">
<g id="SF Symbol &#226;&#147;&#131;">
<path d="M7.89894 14.1466C8.49449 14.1466 8.80911 13.8095 8.80911 13.2252V10.5733C8.80911 9.40466 9.42714 8.80911 10.5508 8.80911H13.2701C13.8656 8.80911 14.1915 8.48325 14.1915 7.89894C14.1915 7.31463 13.8656 7 13.2701 7H10.5283C8.17986 7 7 8.15738 7 10.4722V13.2252C7 13.8095 7.32587 14.1466 7.89894 14.1466ZM28.0914 14.1466C28.6869 14.1466 29.0015 13.8095 29.0015 13.2252V10.4722C29.0015 8.15738 27.8217 7 25.4732 7H22.7202C22.1359 7 21.81 7.31463 21.81 7.89894C21.81 8.48325 22.1359 8.80911 22.7202 8.80911H25.4395C26.5519 8.80911 27.1924 9.40466 27.1924 10.5733V13.2252C27.1924 13.8095 27.5183 14.1466 28.0914 14.1466ZM17.1018 19.8885H17.1917C18.3266 19.8885 18.9447 19.2705 18.9447 18.1356V14.596C18.9447 14.1578 18.6525 13.8769 18.2255 13.8769C17.776 13.8769 17.4839 14.1578 17.4839 14.596V18.2367C17.4839 18.3491 17.4165 18.4053 17.3153 18.4053H16.922C16.5175 18.4053 16.2029 18.7199 16.2029 19.1244C16.2029 19.6076 16.5288 19.8885 17.1018 19.8885ZM13.7196 17.2367C14.2477 17.2367 14.6297 16.8659 14.6297 16.3265V14.7983C14.6297 14.2589 14.2477 13.8881 13.7196 13.8881C13.1914 13.8881 12.8206 14.2589 12.8206 14.7983V16.3265C12.8206 16.8659 13.1914 17.2367 13.7196 17.2367ZM22.2483 17.2367C22.7651 17.2367 23.136 16.8659 23.136 16.3265V14.7983C23.136 14.2589 22.7651 13.8881 22.2483 13.8881C21.7089 13.8881 21.3381 14.2589 21.3381 14.7983V16.3265C21.3381 16.8659 21.7089 17.2367 22.2483 17.2367ZM17.9333 23.6641C19.293 23.6641 20.6639 23.0798 21.6415 22.1022C21.7763 21.9786 21.8437 21.7875 21.8437 21.5628C21.8437 21.1358 21.5291 20.8324 21.1133 20.8324C20.8998 20.8324 20.7425 20.9111 20.529 21.1358C19.911 21.7763 18.9334 22.2145 17.9333 22.2145C16.9895 22.2145 16.0006 21.7988 15.3489 21.1358C15.1691 20.9673 15.023 20.8324 14.7533 20.8324C14.3376 20.8324 14.023 21.1358 14.023 21.5628C14.023 21.7538 14.0904 21.9336 14.2365 22.0909C15.1466 23.1247 16.5737 23.6641 17.9333 23.6641ZM10.5283 28.9903H13.2701C13.8656 28.9903 14.1915 28.6644 14.1915 28.0914C14.1915 27.507 13.8656 27.1812 13.2701 27.1812H10.5508C9.42714 27.1812 8.80911 26.5856 8.80911 25.417V22.7651C8.80911 22.1696 8.48325 21.8437 7.89894 21.8437C7.31463 21.8437 7 22.1696 7 22.7651V25.5069C7 27.8329 8.17986 28.9903 10.5283 28.9903ZM22.7202 28.9903H25.4732C27.8217 28.9903 29.0015 27.8217 29.0015 25.5069V22.7651C29.0015 22.1696 28.6757 21.8437 28.0914 21.8437C27.507 21.8437 27.1924 22.1696 27.1924 22.7651V25.417C27.1924 26.5856 26.5519 27.1812 25.4395 27.1812H22.7202C22.1359 27.1812 21.81 27.507 21.81 28.0914C21.81 28.6644 22.1359 28.9903 22.7202 28.9903Z" fill="#0669FD"/>
</g>
</g>
</g>
</svg>
