<svg width="32" height="32" viewBox="0 0 32 32" fill="none" xmlns="http://www.w3.org/2000/svg">
<path d="M13.6236 26.3644C11.9676 26.364 10.3372 25.9553 8.8768 25.1744C7.41643 24.3935 6.17116 23.2645 5.25129 21.8874C4.33141 20.5104 3.7653 18.9277 3.60311 17.2796C3.44092 15.6315 3.68764 13.9689 4.32143 12.4389C4.95522 10.909 5.95651 9.5589 7.23664 8.5083C8.51676 7.45769 10.0362 6.73898 11.6604 6.4158C13.2846 6.09262 14.9635 6.17496 16.5482 6.65551C18.133 7.13607 19.5749 8.00001 20.7461 9.17083C20.8937 9.31908 20.9764 9.51991 20.9759 9.72913C20.9755 9.93836 20.892 10.1388 20.7437 10.2865C20.5955 10.4341 20.3946 10.5168 20.1854 10.5164C19.9762 10.5159 19.7757 10.4324 19.6281 10.2841C18.4397 9.09619 16.9257 8.28728 15.2776 7.95969C13.6295 7.6321 11.9213 7.80054 10.3689 8.44372C8.81655 9.0869 7.48975 10.1759 6.55627 11.5731C5.62279 12.9703 5.12454 14.6129 5.12454 16.2933C5.12454 17.9736 5.62279 19.6162 6.55627 21.0134C7.48975 22.4106 8.81655 23.4996 10.3689 24.1428C11.9213 24.786 13.6295 24.9544 15.2776 24.6269C16.9257 24.2993 18.4397 23.4903 19.6281 22.3024C19.7757 22.1541 19.9762 22.0706 20.1854 22.0702C20.3946 22.0697 20.5955 22.1524 20.7437 22.3001C20.892 22.4477 20.9755 22.6482 20.9759 22.8574C20.9764 23.0666 20.8937 23.2675 20.7461 23.4157C19.8122 24.3529 18.702 25.096 17.4796 25.602C16.2572 26.1081 14.9466 26.3672 13.6236 26.3644V26.3644Z" fill="#E2034D"/>
<path d="M27.873 16.8103C27.9074 16.779 27.9372 16.7429 27.9615 16.7032L27.9987 16.6426C27.9987 16.6426 27.9987 16.6007 28.0314 16.5728C28.0419 16.5473 28.0497 16.5207 28.0546 16.4936C28.0594 16.4737 28.0594 16.4529 28.0546 16.433C28.078 16.335 28.078 16.2329 28.0546 16.1349C28.0594 16.115 28.0594 16.0943 28.0546 16.0743C28.0497 16.0472 28.0419 16.0207 28.0314 15.9952C28.0208 15.9709 28.0083 15.9476 27.9941 15.9253C27.986 15.9037 27.9751 15.8833 27.9615 15.8647C27.9359 15.8218 27.9046 15.7826 27.8683 15.7483L24.3001 12.1801C24.2317 12.1018 24.1478 12.0384 24.0539 11.9938C23.9599 11.9492 23.8578 11.9244 23.7539 11.921C23.6499 11.9175 23.5464 11.9354 23.4497 11.9736C23.353 12.0117 23.2651 12.0694 23.1916 12.1429C23.118 12.2165 23.0604 12.3043 23.0222 12.401C22.984 12.4978 22.9661 12.6013 22.9696 12.7053C22.9731 12.8092 22.9979 12.9113 23.0425 13.0052C23.087 13.0992 23.1504 13.183 23.2287 13.2515L25.5066 15.5293H18.7428C18.5523 15.5443 18.3745 15.6305 18.2447 15.7708C18.115 15.9111 18.043 16.0952 18.043 16.2863C18.043 16.4774 18.115 16.6614 18.2447 16.8018C18.3745 16.9421 18.5523 17.0283 18.7428 17.0433H25.4833L23.2147 19.3211C23.144 19.3913 23.0879 19.4747 23.0496 19.5667C23.0113 19.6586 22.9916 19.7572 22.9916 19.8568C22.9916 19.9564 23.0113 20.055 23.0496 20.147C23.0879 20.2389 23.144 20.3224 23.2147 20.3925C23.3576 20.5331 23.55 20.6118 23.7504 20.6118C23.9509 20.6118 24.1432 20.5331 24.2861 20.3925L27.8543 16.8197" fill="#E2034D"/>
<circle cx="15.5496" cy="16.2467" r="0.815191" fill="#E2034D"/>
</svg>
