<svg width="37" height="37" viewBox="0 0 37 37" fill="none" xmlns="http://www.w3.org/2000/svg">
<g clip-path="url(#clip0_5784_659)">
<path d="M18.25 13.8224C19.9235 13.8182 21.5641 14.287 22.9827 15.1746C24.4014 16.0623 25.5402 17.3328 26.2679 18.8395C25.5366 20.3436 24.3968 21.6116 22.9789 22.4987C21.561 23.3858 19.9221 23.8563 18.2495 23.8563C16.5768 23.8563 14.9379 23.3858 13.52 22.4987C12.1021 21.6116 10.9624 20.3436 10.2311 18.8395C10.9589 17.3326 12.0978 16.062 13.5166 15.1744C14.9355 14.2867 16.5763 13.818 18.25 13.8224ZM18.25 11.9985C16.0886 12.0018 13.9783 12.6563 12.1945 13.8766C10.4107 15.0969 9.03606 16.8264 8.25 18.8395C9.03315 20.8546 10.407 22.5861 12.1915 23.807C13.976 25.0278 16.0878 25.6811 18.25 25.6811C20.4122 25.6811 22.524 25.0278 24.3085 23.807C26.093 22.5861 27.4669 20.8546 28.25 18.8395C27.4639 16.8264 26.0893 15.0969 24.3055 13.8766C22.5217 12.6563 20.4114 12.0018 18.25 11.9985ZM18.25 16.5588C18.7015 16.5572 19.1433 16.6895 19.5196 16.9391C19.8958 17.1887 20.1895 17.5443 20.3634 17.9609C20.5374 18.3775 20.5837 18.8363 20.4967 19.2793C20.4096 19.7222 20.193 20.1294 19.8743 20.4492C19.5557 20.769 19.1492 20.9871 18.7065 21.0757C18.2638 21.1644 17.8048 21.1198 17.3875 20.9474C16.9702 20.775 16.6134 20.4827 16.3624 20.1075C16.1114 19.7322 15.9774 19.291 15.9774 18.8395C15.9768 18.5406 16.0352 18.2444 16.1491 17.968C16.263 17.6916 16.4302 17.4404 16.6413 17.2286C16.8523 17.0168 17.103 16.8487 17.379 16.7337C17.655 16.6188 17.951 16.5594 18.25 16.5588ZM18.25 14.7349C17.4374 14.732 16.6423 14.9703 15.9652 15.4195C15.2882 15.8687 14.7597 16.5088 14.4467 17.2585C14.1338 18.0083 14.0504 18.834 14.2071 19.6312C14.3638 20.4284 14.7536 21.1611 15.3272 21.7367C15.9007 22.3122 16.6322 22.7046 17.4289 22.8641C18.2257 23.0237 19.0519 22.9433 19.8029 22.6331C20.5539 22.3228 21.1959 21.7968 21.6476 21.1214C22.0994 20.4461 22.3405 19.652 22.3405 18.8395C22.3405 17.7535 21.91 16.7117 21.1433 15.9423C20.3766 15.173 19.3362 14.7388 18.25 14.7349Z" fill="#121212"/>
</g>
<defs>
<clipPath id="clip0_5784_659">
<rect width="20" height="13.682" fill="white" transform="translate(8.25 11.9985)"/>
</clipPath>
</defs>
</svg>
