<svg width="32" height="32" viewBox="0 0 32 32" fill="none" xmlns="http://www.w3.org/2000/svg">
<g clip-path="url(#clip0_5132_3966)">
<g clip-path="url(#clip1_5132_3966)">
<path d="M10.4785 6.98827C11.1716 6.20935 12.1323 5.78039 13.1837 5.78039C14.3573 5.78039 15.3746 6.33531 16.1256 7.3851C16.1819 7.46381 16.2346 7.54252 16.284 7.62043C16.3333 7.54248 16.386 7.46381 16.4423 7.3851C17.1934 6.33531 18.2107 5.7804 19.3843 5.7804C20.4357 5.7804 21.3964 6.20935 22.0895 6.98823C22.7471 7.72739 23.1094 8.71556 23.1094 9.77068C23.1094 10.9173 22.6644 11.9753 21.7092 13.1005C20.8758 14.0822 19.6803 15.0912 18.2959 16.2596C17.7844 16.6914 17.2554 17.1379 16.6933 17.6251C16.5758 17.7268 16.4299 17.7777 16.284 17.7777C16.1381 17.7777 15.9922 17.7268 15.8748 17.6251C15.3127 17.138 14.7838 16.6915 14.2723 16.2598C13.3832 15.5094 12.6154 14.8614 11.9491 14.2328C10.6556 13.0123 9.45857 11.627 9.45857 9.77072C9.45857 8.71556 9.82077 7.72743 10.4785 6.98827ZM12.8068 13.3238C13.4478 13.9286 14.2034 14.5663 15.0783 15.3048C15.4675 15.6332 15.8667 15.9701 16.284 16.328C16.7013 15.9702 17.1006 15.6332 17.4898 15.3046C20.2148 13.0047 21.8596 11.6164 21.8596 9.77072C21.8597 8.20835 20.7955 7.03018 19.3843 7.03018C18.6303 7.03018 17.9891 7.3851 17.4785 8.08506C17.0594 8.65947 16.8874 9.25497 16.8862 9.25897C16.8112 9.52968 16.5649 9.7171 16.284 9.7171C16.0031 9.7171 15.7568 9.52968 15.6818 9.25897C15.6756 9.23668 15.0431 7.03018 13.1837 7.03018C11.7725 7.03018 10.7083 8.20839 10.7083 9.77072C10.7083 10.9028 11.2966 11.8989 12.8068 13.3238Z" fill="#121212"/>
<path d="M24.7899 18.0287C24.2716 18.0287 23.7715 18.2463 23.4181 18.6257L21.5815 20.5973C21.3441 19.8341 20.6313 19.2784 19.7911 19.2784L16.9044 19.2784C16.5003 19.2784 16.1106 19.1314 15.8072 18.8644C14.1754 17.4284 11.7226 17.4158 10.0753 18.8247C9.73564 18.3437 9.17589 18.0287 8.54355 18.0287L5.96081 18.0287C5.61573 18.0287 5.33594 18.3085 5.33594 18.6536L5.33594 26.1519C5.33594 26.497 5.61569 26.7768 5.96081 26.7768L8.54356 26.7768C9.10472 26.7768 9.60872 26.5286 9.95255 26.1366L10.3226 26.2406C11.5883 26.5964 12.8968 26.7767 14.2115 26.7767L19.791 26.7767C21.1604 26.7767 22.4686 26.1227 23.2902 25.0271L26.2902 21.0272C26.2902 21.0272 26.2903 21.0271 26.2903 21.027C26.5351 20.7006 26.6645 20.312 26.6645 19.9032C26.6645 18.8696 25.8236 18.0287 24.7899 18.0287ZM9.16843 24.9021C9.16843 25.2467 8.88814 25.527 8.54356 25.527L6.58564 25.527L6.58564 19.2784L8.54356 19.2784C8.8881 19.2784 9.16843 19.5587 9.16843 19.9032L9.16843 24.9021ZM25.2905 20.2773C25.2905 20.2773 25.2904 20.2773 25.2904 20.2774L22.2905 24.2773C21.7036 25.0599 20.7692 25.527 19.791 25.527L14.2117 25.527C13.0112 25.527 11.8165 25.3623 10.6609 25.0375L10.4165 24.9688C10.4173 24.9466 10.4182 24.9245 10.4182 24.9022L10.4182 20.1857L10.8537 19.8025C12.0303 18.7671 13.805 18.767 14.9817 19.8025C15.5134 20.2704 16.1962 20.528 16.9045 20.528L19.7912 20.528C20.1357 20.528 20.416 20.8084 20.416 21.1529C20.416 21.4975 20.1357 21.7778 19.7912 21.7778L15.3501 21.7778C15.005 21.7778 14.7252 22.0575 14.7252 22.4027C14.7252 22.7478 15.005 23.0275 15.3501 23.0275L20.2099 23.0275C20.7282 23.0275 21.2282 22.81 21.5816 22.4307L24.3325 19.4775C24.4521 19.3491 24.6146 19.2784 24.7899 19.2784C25.1345 19.2784 25.4148 19.5587 25.4148 19.9032C25.4148 20.0395 25.3718 20.1688 25.2905 20.2773Z" fill="#121212"/>
</g>
</g>
<defs>
<clipPath id="clip0_5132_3966">
<rect width="32" height="32" fill="white"/>
</clipPath>
<clipPath id="clip1_5132_3966">
<rect width="21.3333" height="21.3333" fill="white" transform="matrix(1 8.74228e-08 8.74228e-08 -1 5.33203 26.6666)"/>
</clipPath>
</defs>
</svg>
