<svg width="32" height="32" viewBox="0 0 32 32" fill="none" xmlns="http://www.w3.org/2000/svg">
<ellipse cx="20.9049" cy="23.189" rx="0.815009" ry="0.815007" fill="#121212"/>
<path d="M16.0801 12.6545C15.2871 12.6536 14.5182 12.9277 13.9046 13.4301C13.291 13.9326 12.8706 14.6322 12.715 15.4099C12.5595 16.1875 12.6784 16.9951 13.0515 17.6949C13.4246 18.3947 14.0289 18.9435 14.7612 19.2477C15.4936 19.5519 16.3089 19.5928 17.068 19.3633C17.8271 19.1338 18.4832 18.6482 18.9244 17.9892C19.3656 17.3301 19.5647 16.5385 19.4876 15.7492C19.4106 14.9599 19.0622 14.2217 18.5019 13.6605C17.8599 13.0174 16.9888 12.6556 16.0801 12.6545ZM17.5425 17.5353C17.2546 17.8232 16.8879 18.0193 16.4885 18.0988C16.0892 18.1783 15.6753 18.1375 15.2991 17.9817C14.923 17.826 14.6014 17.5621 14.3752 17.2236C14.149 16.8851 14.0283 16.4871 14.0283 16.0799C14.0283 15.6728 14.149 15.2747 14.3752 14.9362C14.6014 14.5977 14.923 14.3339 15.2991 14.1781C15.6753 14.0223 16.0892 13.9815 16.4885 14.061C16.8879 14.1405 17.2546 14.3366 17.5425 14.6245C17.9267 15.0096 18.1425 15.5313 18.1425 16.0752C18.1425 16.6192 17.9267 17.1409 17.5425 17.526" fill="#121212"/>
<path d="M26.2148 13.5719L23.6115 13.3344C23.5323 13.1295 23.4485 12.9199 23.3553 12.715L25.0273 10.7078C25.1372 10.575 25.1938 10.4061 25.186 10.234C25.1783 10.0618 25.1067 9.89866 24.9853 9.77633L22.4006 7.19159C22.2805 7.06621 22.1167 6.99189 21.9433 6.98409C21.7698 6.97628 21.6 7.03558 21.4692 7.14968L19.4526 8.82161C19.2511 8.7247 19.0443 8.63919 18.8332 8.56546L18.5957 5.95744C18.5795 5.78696 18.5004 5.62862 18.3739 5.51325C18.2473 5.39789 18.0823 5.33377 17.9111 5.33338H14.2552C14.0846 5.33289 13.9202 5.39696 13.7949 5.51272C13.6697 5.62849 13.5928 5.78736 13.5799 5.95744L13.3424 8.56081C13.1328 8.63998 12.9232 8.72381 12.723 8.82161L10.7111 7.14502C10.5792 7.03305 10.4099 6.97513 10.2371 6.98291C10.0643 6.99068 9.90088 7.06358 9.77964 7.18694L7.1856 9.76702C7.06419 9.88934 6.99263 10.0525 6.98489 10.2246C6.97714 10.3968 7.03374 10.5657 7.14367 10.6985L8.82026 12.7104C8.72711 12.9153 8.64329 13.1202 8.56412 13.3298L5.95609 13.5673C5.78641 13.5834 5.62871 13.6618 5.51346 13.7874C5.3982 13.913 5.33357 14.0768 5.33203 14.2472V17.9171C5.33357 18.0875 5.3982 18.2514 5.51346 18.3769C5.62871 18.5025 5.78641 18.5809 5.95609 18.597L8.56412 18.8346C8.64329 19.0441 8.72711 19.2537 8.82026 19.4586L7.14367 21.4659C7.03473 21.599 6.97877 21.7677 6.98651 21.9396C6.99424 22.1115 7.06513 22.2745 7.1856 22.3973L9.77499 24.982C9.89623 25.1054 10.0597 25.1783 10.2325 25.1861C10.4053 25.1938 10.5746 25.1359 10.7064 25.024L12.7183 23.3474C12.9186 23.447 13.1256 23.5326 13.3377 23.6035L13.5846 26.2115C13.6007 26.3812 13.6791 26.5389 13.8047 26.6542C13.9302 26.7694 14.0941 26.8341 14.2645 26.8356H17.9251C18.0955 26.8341 18.2593 26.7694 18.3849 26.6542C18.5105 26.5389 18.5889 26.3812 18.605 26.2115L18.8844 23.1564C18.8924 23.0668 18.8826 22.9765 18.8557 22.8907C18.8287 22.8049 18.7851 22.7252 18.7274 22.6562C18.6697 22.5873 18.5989 22.5303 18.5192 22.4887C18.4395 22.4471 18.3523 22.4215 18.2627 22.4136C18.1731 22.4056 18.0828 22.4154 17.997 22.4424C17.9112 22.4693 17.8315 22.5129 17.7625 22.5706C17.6935 22.6284 17.6366 22.6991 17.595 22.7788C17.5534 22.8586 17.5278 22.9457 17.5199 23.0353L17.2963 25.4617H14.8932L14.665 23.0307C14.6519 22.8945 14.5984 22.7654 14.5112 22.66C14.424 22.5546 14.3073 22.4777 14.176 22.4392C13.7507 22.3084 13.3389 22.1368 12.9465 21.9269C12.8276 21.863 12.6923 21.836 12.5579 21.8493C12.4236 21.8625 12.2962 21.9155 12.1921 22.0014L10.3292 23.5663L8.62466 21.8617L10.1895 19.9988C10.2754 19.8947 10.3284 19.7673 10.3416 19.633C10.3549 19.4986 10.3279 19.3633 10.264 19.2444C10.0537 18.8528 9.88357 18.4408 9.75636 18.0149C9.71483 17.8866 9.63586 17.7737 9.52962 17.6907C9.42338 17.6077 9.29474 17.5584 9.16024 17.5492L6.72919 17.3256L6.72919 14.8853L9.16024 14.6664C9.29365 14.6536 9.42064 14.603 9.52625 14.5205C9.63187 14.438 9.7117 14.327 9.75636 14.2007C9.8667 13.7662 10.0228 13.3447 10.2221 12.9432C10.2852 12.8232 10.3117 12.6874 10.2985 12.5525C10.2852 12.4176 10.2328 12.2895 10.1476 12.1841L8.58275 10.3212L10.2873 8.61669L12.1501 10.1768C12.2545 10.2639 12.3825 10.3179 12.5177 10.332C12.6528 10.3461 12.7892 10.3197 12.9093 10.256C13.2994 10.0414 13.7117 9.86967 14.1388 9.74373C14.2661 9.70059 14.378 9.62118 14.4607 9.51527C14.5435 9.40936 14.5934 9.28156 14.6045 9.14761L14.828 6.72122L17.2311 6.72122L17.4547 9.14761C17.4645 9.28193 17.5141 9.41029 17.597 9.51641C17.6799 9.62254 17.7925 9.70166 17.9204 9.74373C18.3472 9.87054 18.7593 10.0423 19.1499 10.256C19.2696 10.3181 19.4049 10.3436 19.539 10.3296C19.6731 10.3155 19.8001 10.2624 19.9044 10.1768L21.7672 8.61669L23.4718 10.3212L21.9069 12.1841C21.8206 12.289 21.7674 12.4171 21.7542 12.5523C21.7409 12.6875 21.7681 12.8236 21.8324 12.9432C22.0416 13.3354 22.2116 13.7472 22.3401 14.1727C22.3832 14.3 22.4626 14.4119 22.5685 14.4947C22.6744 14.5774 22.8022 14.6274 22.9362 14.6384L25.3719 14.8573V17.2651L22.9408 17.4793C22.8043 17.4927 22.6747 17.5464 22.5686 17.6334C22.4625 17.7204 22.3846 17.837 22.3447 17.9683C22.2175 18.3943 22.0474 18.8062 21.8371 19.1978C21.7744 19.3171 21.7481 19.4521 21.7613 19.5862C21.7745 19.7203 21.8268 19.8476 21.9116 19.9523L23.8862 22.3088C24.0032 22.4456 24.1693 22.5308 24.3486 22.546C24.5279 22.5613 24.706 22.5053 24.8444 22.3902C24.9827 22.2751 25.0702 22.1102 25.0879 21.9311C25.1055 21.752 25.052 21.5732 24.9388 21.4333L23.3414 19.4633C23.4374 19.2614 23.5229 19.0546 23.5975 18.8439L26.2009 18.6064C26.371 18.5924 26.5298 18.5155 26.6461 18.3905C26.7624 18.2656 26.8278 18.1017 26.8296 17.9311V14.2565C26.8294 14.0867 26.7666 13.923 26.6532 13.7966C26.5397 13.6703 26.3836 13.5903 26.2148 13.5719Z" fill="#121212"/>
</svg>
