<svg width="36" height="36" viewBox="0 0 36 36" fill="none" xmlns="http://www.w3.org/2000/svg">
<path d="M20.2622 22.3799H16.7216C16.4666 22.3969 16.2276 22.5102 16.053 22.6968C15.8784 22.8835 15.7813 23.1295 15.7812 23.3851C15.7813 23.6406 15.8784 23.8867 16.053 24.0733C16.2276 24.2599 16.4666 24.3732 16.7216 24.3903H20.2622C20.5173 24.3732 20.7563 24.2599 20.9309 24.0733C21.1055 23.8867 21.2026 23.6406 21.2026 23.3851C21.2026 23.1295 21.1055 22.8835 20.9309 22.6968C20.7563 22.5102 20.5173 22.3969 20.2622 22.3799Z" fill="#008859"/>
<path fill-rule="evenodd" clip-rule="evenodd" d="M14.8534 5.20221C16.9698 3.56979 19.9299 3.60297 22.0092 5.28242L24.1211 6.98821V5.56706C24.1211 5.01421 24.5693 4.56604 25.1222 4.56604C25.675 4.56604 26.1232 5.01421 26.1232 5.56706V8.76114C26.1232 9.73215 24.9978 10.2698 24.2424 9.65969L20.7513 6.8399C19.3928 5.74266 17.4589 5.72098 16.0761 6.7875L9.61065 11.7743C8.59623 12.5567 8.00205 13.7654 8.00205 15.0465V25.3566C8.00205 26.2497 8.72603 26.9736 9.6191 26.9736H27.3809C28.274 26.9736 28.9979 26.2497 28.9979 25.3566V16C28.9979 15.4471 29.4461 14.999 29.999 14.999C30.5518 14.999 31 15.4471 31 16V25.3566C31 27.3554 29.3797 28.9757 27.3809 28.9757H9.6191C7.62032 28.9757 6 27.3554 6 25.3566V15.0465C6 13.1447 6.88203 11.3505 8.38792 10.189L14.8534 5.20221Z" fill="#008859"/>
<path d="M28.0074 13.2378C28.1761 13.2411 28.3436 13.2088 28.4989 13.1429C28.6577 13.0766 28.8015 12.9789 28.9214 12.8555C29.0426 12.7356 29.1385 12.5928 29.2037 12.4353C29.2688 12.2779 29.3019 12.109 29.3008 11.9386C29.3019 11.8545 29.2932 11.7706 29.275 11.6885C29.2572 11.6048 29.2342 11.5222 29.206 11.4413C29.169 11.3634 29.1277 11.2876 29.0824 11.2143C29.0334 11.1472 28.9796 11.0838 28.9214 11.0246C28.6781 10.784 28.3495 10.6497 28.0074 10.6509C27.6658 10.6485 27.3369 10.7795 27.0904 11.0159C27.0307 11.0805 26.975 11.1486 26.9237 11.22C26.8798 11.2878 26.8432 11.3601 26.8145 11.4356C26.7783 11.5144 26.7522 11.5974 26.7369 11.6828C26.7186 11.7649 26.7099 11.8488 26.711 11.9328C26.7106 12.1032 26.744 12.2719 26.8091 12.4292C26.8742 12.5866 26.9698 12.7295 27.0904 12.8497C27.2095 12.9726 27.352 13.0702 27.5095 13.1369C27.667 13.2035 27.8363 13.2378 28.0074 13.2378Z" fill="#008859"/>
</svg>
